<?xml version="1.0" encoding="UTF-8"?>
<svg width="716" height="716" viewBox="0 0 716 716" fill="none" xmlns="http://www.w3.org/2000/svg">
<path d="M508.749 317.399C516.777 287.314 508.991 253.884 485.389 230.282C461.788 206.681 428.36 198.895 398.273 206.923C376.231 184.928 343.39 174.956 311.148 183.596C278.906 192.234 255.45 217.292 247.36 247.361C217.291 255.451 192.233 278.91 183.595 311.149C174.957 343.391 184.927 376.232 206.924 398.274C198.896 428.359 206.683 461.789 230.284 485.391C253.885 508.992 287.313 516.779 317.401 508.75C339.442 530.745 372.286 540.717 404.525 532.079C436.767 523.441 460.223 498.384 468.313 468.315C498.383 460.224 523.44 436.766 532.078 404.526C540.716 372.285 530.747 339.443 508.749 317.402V317.399ZM470.899 244.776C486.892 260.77 493.488 282.601 490.687 303.412L415.577 260.046C412.411 258.218 408.509 258.218 405.345 260.046L317.401 310.82V277.526C317.401 275.191 318.652 273.005 320.676 271.837L387.644 233.174C414.178 218.353 448.346 222.223 470.901 244.776H470.899ZM357.837 311.144L398.275 334.491V381.185L357.837 404.532L317.398 381.185V334.491L357.837 311.144ZM264.776 269.693C265.217 294.499 256.165 318.195 239.426 336.569L317.401 381.185V468.313C317.401 470.648 316.15 472.834 314.126 474.002L247.158 512.665C220.624 527.486 186.456 523.616 163.901 501.063C141.909 479.069 134.123 445.639 142.151 415.554L220.126 370.938C203.387 352.564 194.335 328.868 194.776 304.062C194.776 271.408 207.757 240.094 230.869 217.911C253.981 195.728 285.339 183.486 317.401 184.133V271.837L264.776 269.693Z" fill="#00B4D8"/>
<path d="M398.275 142.151C430.832 142.151 457.837 169.156 457.837 201.713C457.837 234.27 430.832 261.275 398.275 261.275C365.718 261.275 338.713 234.27 338.713 201.713C338.713 169.156 365.718 142.151 398.275 142.151Z" fill="#00B4D8"/>
</svg>