<svg viewBox="0 0 40 40" fill="none" stroke="currentColor" stroke-width="1.5" stroke-linecap="round" stroke-linejoin="round">
  <!-- Whale tail -->
  <path d="M8 22 C6 20 4 18 5 16 C7 18 8 20 8 22" opacity="0.6"/>
  <path d="M8 22 C6 24 4 26 5 28 C7 26 8 24 8 22" opacity="0.6"/>
  <!-- Whale body -->
  <path d="M8 22 Q8 14 18 14 Q28 14 30 20 Q28 26 18 26 Q8 26 8 22"/>
  <!-- Dorsal fin -->
  <path d="M18 14 Q20 10 22 12"/>
  <!-- Side fin -->
  <path d="M18 22 Q14 24 16 26"/>
  <!-- Eye -->
  <circle cx="24" cy="19" r="1.5" fill="currentColor" opacity="0.8"/>
  <!-- Smile -->
  <path d="M26 24 Q28 25 30 23" opacity="0.5"/>
  <!-- Phone handset near mouth -->
  <path d="M30 20 C32 19 34 20 35 22 C36 24 35 26 33 27" />
  <rect x="32" y="18" width="4" height="8" rx="2" transform="rotate(-20 34 22)" opacity="0.7"/>
</svg>